<?xml version="1.0" encoding="UTF-8"?><svg id="Layer_1" xmlns="http://www.w3.org/2000/svg" viewBox="0 0 632.66 142.8"><defs><style>.risingOf{fill:var(--color-text);}.lightOfTheSun{fill:var(--color-text);}.seperator{fill:var(--color-text);}.settingOf{fill:var(--color-text);}.lightOfTheSun-2{fill:var(--color-text);}</style></defs><g id="LightOfTheRisingSun"><path id="RisingOf" class="risingOf chineseAll light" d="M105.98,112.98c8.96,0,10.5-2.66,11.62-15.54,3.08,1.96,8.4,4.06,12.18,4.76-2.1,17.64-6.3,23.1-22.96,23.1h-38.5c-19.46,0-25.2-4.2-25.2-21.28V40.32h-12.74v11.76c0,28.14-2.52,54.6-20.3,77-2.38-2.94-6.86-6.86-10.08-9.24,15.96-20.02,18.06-44.1,18.06-67.76v-11.76H2.94v-11.9h15.12V.28h12.32V28.42h25.34V103.88c0,7.7,1.82,9.1,13.02,9.1h37.24Zm15.26-17.08h-52.5V10.22h52.5V95.9Zm-12.88-73.22h-27.16v23.94h27.16V22.68Zm0,36.26h-27.16v24.5h27.16v-24.5Z"/><path id="LightOfTheSun" class="lightOfTheSun chineseAll light" d="M191.1,98.7h-26.04v10.78h-11.34V10.64h37.38V98.7Zm-26.04-76.44v26.18h14.56V22.26h-14.56Zm14.56,64.96v-27.58h-14.56v27.58h14.56Zm97.44,23.38h-36.12v17.92h-12.32v-17.92h-36.12v-10.92h36.12v-7.7h-26.74V47.32h26.74v-7.7h-29.12v-10.22h29.12v-10.22h12.32v10.22h30.38v10.22h-30.38v7.7h28.28v44.66h-28.28v7.7h36.12v10.92ZM208.04,26.32h-11.9V5.74h77.7V26.32h-12.18V15.96h-53.62v10.36Zm4.9,38.78h15.68v-8.4h-15.68v8.4Zm15.68,17.5v-8.68h-15.68v8.68h15.68Zm12.32-25.9v8.4h16.66v-8.4h-16.66Zm16.66,17.22h-16.66v8.68h16.66v-8.68Z"/></g><path id="Seperator" class="seperator chineseAll" d="M330.68,5.74h11.2l-38.92,137.06h-11.2L330.68,5.74Z"/><g id="LightOfTheSettingSun"><path id="SettingOf" class="settingOf chineseAll dark" d="M476.7,25.9c-14.56,57.82-52.78,89.04-99.54,103.46-1.68-3.78-5.18-9.66-7.98-12.6,21.7-5.88,41.86-16.38,58.24-31.64-7.84-7.7-20.86-17.22-31.78-23.66l9.24-8.68c10.78,6.02,23.66,14.84,31.92,22.26,9.38-11.2,17.08-24.5,22.26-39.9h-49.7c-10.5,14.7-22.96,27.02-36.26,35.98-2.38-2.8-8.26-7.7-11.48-10.08,22.26-13.16,40.88-35.42,51.24-61.04l14,3.92c-2.66,6.44-5.88,12.6-9.24,18.48h46.9l2.38-.7,9.8,4.2Z"/><path id="LightOfTheSun" class="lightOfTheSun-2 chineseAll dark" d="M546.7,98.7h-26.04v10.78h-11.34V10.64h37.38V98.7Zm-26.04-76.44v26.18h14.56V22.26h-14.56Zm14.56,64.96v-27.58h-14.56v27.58h14.56Zm97.44,23.38h-36.12v17.92h-12.32v-17.92h-36.12v-10.92h36.12v-7.7h-26.74V47.32h26.74v-7.7h-29.12v-10.22h29.12v-10.22h12.32v10.22h30.38v10.22h-30.38v7.7h28.28v44.66h-28.28v7.7h36.12v10.92Zm-69.02-84.28h-11.9V5.74h77.7V26.32h-12.18V15.96h-53.62v10.36Zm4.9,38.78h15.68v-8.4h-15.68v8.4Zm15.68,17.5v-8.68h-15.68v8.68h15.68Zm12.32-25.9v8.4h16.66v-8.4h-16.66Zm16.66,17.22h-16.66v8.68h16.66v-8.68Z"/></g></svg>