<?xml version="1.0" encoding="UTF-8"?><svg id="Layer_1" xmlns="http://www.w3.org/2000/svg" viewBox="0 0 156 56"><defs><style>.logo{fill:#2b3239;}</style></defs><path class="logo" d="M78.86,23.91c3.62,2.14,7.66,4.99,10.27,7.4,2.88-3.16,5.14-6.93,6.69-11.38h-13.77c-1.05,1.4-2.1,2.77-3.19,3.97Z"/><rect class="logo" x="114.88" y="26.75" width="4.05" height="7.68"/><rect class="logo" x="19.3" y="35.09" width="17.12" height="2.49"/><rect class="logo" x="135.96" y="25.94" width="4.63" height="2.34"/><rect class="logo" x="19.3" y="30.3" width="17.12" height="2.34"/><rect class="logo" x="114.88" y="16.35" width="4.05" height="7.29"/><rect class="logo" x="128.18" y="25.94" width="4.36" height="2.34"/><rect class="logo" x="128.18" y="30.73" width="4.36" height="2.42"/><path class="logo" d="M0,0V56H156V0H0ZM123.51,11.75h21.59v5.73h-3.38v-2.88h-14.9v2.88h-3.31v-5.73ZM40.11,42.38c0,1.87-.47,2.69-1.83,3.16-1.36,.47-3.5,.47-6.65,.47-.19-.9-.7-2.06-1.13-2.92,2.14,.12,4.47,.08,5.06,.08,.66-.04,.86-.19,.86-.78v-2.34H19.3v5.92h-3.66V27.61h24.47v14.77Zm4.01-16.52h-11.67c-6.92,0-11.28-.7-14.16-4.29-1.52,2.57-3.42,4.68-5.6,6.23-.58-.62-1.91-1.75-2.68-2.3,3.62-2.18,6.15-5.88,7.27-10.36l3.38,.58c-.27,1.05-.58,2.1-1.01,3.08,1.32,2.14,3.42,3.12,6.26,3.62v-7.75H12.02v-2.84h29.18l.58-.16,2.45,.7c-.66,2.18-1.48,4.64-2.3,6.27l-2.84-.9c.27-.86,.66-1.95,.97-3.08h-10.54v2.65h8.95v2.57h-8.95v2.88c.97,.04,1.95,.04,3.03,.04,1.71,.04,10.39,0,12.72-.08-.47,.78-.97,2.18-1.17,3.12Zm14,20.03h-3V10h3V45.89Zm13.69,.11c-.43-1.05-1.36-2.69-2.14-3.55,6.22-1.52,11.98-4.32,16.69-8.42-2.49-2.38-6.42-5.38-10-7.6-1.4,1.29-2.92,2.45-4.43,3.51-.62-.78-2.26-2.14-3.19-2.81,6.22-3.66,11.36-9.86,14.24-16.99l3.89,1.13c-.74,1.75-1.59,3.47-2.53,5.1h12.99l.66-.23,2.72,1.25c-4.24,16.25-15.41,24.78-28.9,28.6Zm50.3-8.38h-7.24v3h-3.15V13.12h10.39v24.51Zm23.89,3.31h-10.04v4.99h-3.42v-4.99h-10.04v-3.04h10.04v-2.14h-7.43v-12.43h7.43v-2.14h-8.09v-2.84h8.09v-2.84h3.42v2.84h8.44v2.84h-8.44v2.14h7.86v12.43h-7.86v2.14h10.04v3.04Z"/><rect class="logo" x="135.96" y="30.73" width="4.63" height="2.42"/></svg>